<?xml version="1.0" standalone="no"?>
<!DOCTYPE svg PUBLIC "-//W3C//DTD SVG 20010904//EN"
 "http://www.w3.org/TR/2001/REC-SVG-20010904/DTD/svg10.dtd">
<svg version="1.0" xmlns="http://www.w3.org/2000/svg"
 width="1000.000000pt" height="1000.000000pt" viewBox="0 0 1000.000000 1000.000000"
 preserveAspectRatio="xMidYMid meet">
<metadata>
Created by potrace 1.11, written by Peter Selinger 2001-2013
</metadata>
<g transform="translate(0.000000,1000.000000) scale(0.100000,-0.100000)"
fill="#000000" stroke="none">
<path d="M5558 9523 c-279 -312 -450 -553 -609 -858 -342 -658 -452 -1360
-334 -2135 56 -368 155 -699 369 -1228 130 -322 171 -421 503 -1197 379 -887
528 -1292 632 -1726 74 -307 101 -519 101 -804 1 -342 -55 -646 -174 -949 -64
-162 -28 -109 75 109 89 188 160 430 196 665 27 177 25 590 -5 805 -76 540
-282 1188 -681 2142 -375 897 -561 1355 -631 1558 -247 717 -301 1430 -156
2074 63 279 148 516 286 796 130 264 270 489 506 813 25 34 44 62 41 62 -3 0
-56 -57 -119 -127z"/>
<path d="M4959 9571 c-128 -42 -179 -137 -158 -294 17 -125 55 -163 131 -133
34 13 55 34 98 93 30 42 99 127 153 190 55 63 97 116 95 117 -30 25 -264 45
-319 27z"/>
<path d="M4260 8534 c-125 -33 -211 -98 -252 -191 -42 -95 12 -181 160 -251
69 -33 85 -37 158 -37 51 0 87 5 96 13 9 7 28 52 43 99 15 48 47 138 71 201
24 63 44 116 44 118 0 3 -10 -2 -22 -10 -61 -37 -139 -20 -180 40 -26 38 -37
40 -118 18z"/>
<path d="M4220 6799 c-30 -11 -108 -34 -174 -51 -114 -29 -180 -33 -227 -14
-20 9 -20 10 -54 -189 -30 -170 -51 -240 -103 -339 -41 -78 -46 -128 -19 -169
41 -63 159 -122 265 -133 85 -9 89 -11 65 -37 -36 -39 -54 -86 -65 -172 -12
-88 -10 -115 27 -345 12 -74 14 -138 9 -291 -7 -195 -7 -196 18 -251 75 -163
217 -221 362 -149 98 48 434 299 435 324 1 5 -44 132 -99 283 -109 300 -183
535 -225 714 -15 63 -33 137 -41 163 -23 76 -62 317 -81 505 -10 101 -22 172
-28 171 -5 0 -35 -9 -65 -20z"/>
<path d="M5110 3869 c-297 -75 -521 -197 -597 -326 -41 -70 -51 -150 -52 -412
-2 -331 -16 -437 -88 -650 -33 -100 -34 -109 -23 -159 23 -102 148 -189 320
-223 102 -20 309 -15 405 10 178 47 655 300 655 348 0 20 -74 237 -160 468
-97 260 -368 947 -378 956 -4 3 -41 -2 -82 -12z"/>
<path d="M5878 1645 c-69 -25 -202 -97 -276 -148 -200 -138 -279 -313 -223
-495 44 -144 214 -343 323 -378 52 -16 56 -16 99 3 56 25 92 77 132 190 l31
88 0 230 c0 251 -22 527 -43 524 -3 0 -23 -7 -43 -14z"/>
</g>
</svg>
